# xmcd
#
# Track frame offsets:
#	150
#	16206
#	31309
#	47285
#	62437
#	87516
#	101707
#	125565
#	140995
#	163295
#	191078
#
# Disc length: 2648 seconds
#
# Revision: 1
# Processed by: cddbd v1.5.1PL0 Copyright (c) Steve Scherf et al.
# Submitted via: audiograbber 1.81.03
#
DISCID=980a560b
DTITLE=Blue Soul - Watch Out
DYEAR=1900
DGENRE=Blues
TTITLE0=Don't Let Green Grass Fool You
TTITLE1=All Of My Hole Life
TTITLE2=Dark And Stormy
TTITLE3=Lonely Man
TTITLE4=Out Of My Right Arm
TTITLE5=All About My Girl
TTITLE6=I'll Go Crasy
TTITLE7=The Last Time
TTITLE8=I Done Get Over
TTITLE9=Cut You Loose
TTITLE10=If You Want Me To Leave
EXTD=
EXTT0=
EXTT1=
EXTT2=
EXTT3=
EXTT4=
EXTT5=
EXTT6=
EXTT7=
EXTT8=
EXTT9=
EXTT10=
PLAYORDER=
